[color=red]-------------------------------------------------[/color]
[color=red]-------------------------------------------------[/color]
File Name    : Prince Of Persia The Sands Of Time[2010]DvDrip-LW
Type         : Movie
Format       : AVI
File Size    : 716 MB
Duration     : 01:55:53
Language     : English
Source       : DvD
Subtitles    : None
Genre        : Action
IMDB Link    : http://www.imdb.com/title/tt0473075/
Downloaded   : http://www.sharinghq.l33t.cz.cc
[color=red]-------------------------------------------------[/color]
[color=red]-------------------------------------------------[/color]
Format                           : MPEG-4 Visual
Format profile                   : Advanced Simple@L5
Format settings, BVOP            : Yes
Format settings, QPel            : No
Format settings, GMC             : No warppoints
Format settings, Matrix          : Default (H.263)
Muxing mode                      : Packed bitstream
Codec ID                         : XVID
Codec ID/Hint                    : XviD
Duration                         : 1h 55mn
Bit rate                         : 727 Kbps
Width                            : 640 pixels
Height                           : 270 pixels
Display aspect ratio             : 2.35:1
Frame rate                       : 23.976 fps
Resolution                       : 8 bits
Colorimetry                      : 4:2:0
Scan type                        : Progressive
Bits/(Pixel*Frame)               : 0.175
Stream size                      : 602 MiB (84%)
Writing library                  : XviD 1.2.1
[color=red]-------------------------------------------------[/color]
[color=red]-------------------------------------------------[/color]
Format                           : MPEG Audio
Format version                   : Version 1
Format profile                   : Layer 3
Codec ID                         : 55
Codec ID/Hint                    : MP3
Duration                         : 1h 55mn
Bit rate mode                    : Constant
Bit rate                         : 128 Kbps
Channel(s)                       : 2 channels
Sampling rate                    : 44.1 KHz
Video delay                      : 1s 0ms
Stream size                      : 106 MiB (15%)
Alignment                        : Split accross interleaves
Interleave, duration             : 42 ms (1.00 video frame)
Interleave, preload duration     : 500 ms
[color=red]-------------------------------------------------[/color]
[color=red]-------------------------------------------------[/color]
Jake Gyllenhaal stars as Prince Dastan, who pairs 
with spunky Princess Tamina (Gemma Arterton) to 
keep the Sands of Time -- a mystical dagger that 
gives its holder control over the flow of time -- 
from falling into the wrong hands and putting the 
world in peril. Mike Newell directs this sweeping 
live-action adventure based on the popular video 
game series, co-starring Ben Kingsley and Alfred 
Molina.

Cast: Jake Gyllenhaal, Gemma Arterton

Director: Mike Newell
[color=red]-------------------------------------------------[/color]